{"title":"The Bridge 2011 Miniserie 5DVDrip Swedish Danish Klam","uid":6855442,"size":6577446456,"categoryP":"video","categoryS":"movies","magnet":"?xt=urn:btih:019abcf3de124c5a9ee243774bc36867b2c31cfa&amp;dn=The+Bridge+2011+Miniserie+5DVDrip+Swedish+Danish+Klam&amp;tr=udp%3A%2F%2Ftracker.openbittorrent.com%3A80&amp;tr=udp%3A%2F%2Fopen.demonii.com%3A1337&amp;tr=udp%3A%2F%2Ftracker.coppersurfer.tk%3A6969&amp;tr=udp%3A%2F%2Fexodus.desync.com%3A6969","seeders":2,"leechers":1,"uploader":"Klambake","files":-1,"time":1322683644,"description":"Zweedse Thriller\nMini Serie 10 afleveringen\n\nTwee landen...een brug...een moord...\n\nWanneer op de Oresundbrug tussen Zweden en Denemarken een lijk gevonden wordt, dwingt deze spectaculaire moord de Zweedse en Deense politie tot een nauwe samenwerking. Gruwelijke gebeurtenissen blijven elkaar opvolgen...\nDe Deense agent Martin Rodhe(Kim Bodnia - The Killing, Those Who Kill) en de Zweedse Saga Nor'en (Sofia Helin - Beck) gaan de uitdaging met frisse tegenzin aan. Een uur lang onverwachte wendingen die leiden tot ultieme chaos in de noordelijke landen. En dit is nog maar het begin.\n\nSwedish Thriller,\nTwo Country's ... A Bridge and A murder....\n\n------------------------ Dutch Friends ------------------------\n---------------------------------------------------------------\n- Bezoek ook eens mijn vrienden op: &lt;a href=&quot; http://www.Film-Test.nl&quot; rel=&quot;nofollow&quot; target=&quot;_NEW&quot;&gt; http://www.Film-Test.nl&lt;/a&gt; --\n----- voor mijn Nederlandse Sync. ondertitels ---- en meer ----\n------- http://www.Film-Test.nl ---- voor Films en meer -------\n---------------------------------------------------------------\n\nGeneral:\n\nComplete name                    : The Bridge\\Part01.avi\nFormat                           : AVI\nFormat/Info                      : Audio Video Interleave\nFile size                        : 614 MiB\nDuration                         : 57mn 31s\nOverall bit rate                 : 1 493 Kbps\n\nVideo:\n\nFormat                           : MPEG-4 Visual\nFormat profile                   : Simple@L3\nFormat settings, BVOP            : No\nFormat settings, QPel            : No\nFormat settings, GMC             : No warppoints\nFormat settings, Matrix          : Default (H.263)\nCodec ID                         : XVID\nCodec ID/Hint                    : XviD\nDuration                         : 57mn 31s\nBit rate                         : 1 034 Kbps\nWidth                            : 704 pixels\nHeight                           : 396 pixels\nDisplay aspect ratio             : 16:9\nFrame rate                       : 25.000 fps\nColor space                      : YUV\nChroma subsampling               : 4:2:0\nBit depth                        : 8 bits\nScan type                        : Progressive\nCompression mode                 : Lossy\nBits/(Pixel*Frame)               : 0.148\nStream size                      : 426 MiB (69%)\nWriting library                  : XviD 1.1.2 (UTC 2006-11-01)\n\nAudio:\n\nFormat                           : AC-3\nFormat/Info                      : Audio Coding 3\nMode extension                   : CM (complete main)\nCodec ID                         : 2000\nDuration                         : 57mn 31s\nBit rate mode                    : Constant\nBit rate                         : 448 Kbps\nChannel(s)                       : 6 channels\nChannel positions                : Front: L C R, Side: L R, LFE\nSampling rate                    : 48.0 KHz\nBit depth                        : 16 bits\nCompression mode                 : Lossy\nStream size                      : 184 MiB (30%)\nAlignment                        : Aligned on interleaves\nInterleave, duration             : 32 ms (0.80 video frame)\nInterleave, preload duration     : 416 ms\n\n","torrent":{"xt":"urn:btih:019abcf3de124c5a9ee243774bc36867b2c31cfa","amp;dn":"The+Bridge+2011+Miniserie+5DVDrip+Swedish+Danish+Klam","amp;tr":["udp%3A%2F%2Ftracker.openbittorrent.com%3A80","udp%3A%2F%2Fopen.demonii.com%3A1337","udp%3A%2F%2Ftracker.coppersurfer.tk%3A6969","udp%3A%2F%2Fexodus.desync.com%3A6969"],"infoHash":"019abcf3de124c5a9ee243774bc36867b2c31cfa","infoHashBuffer":{"type":"Buffer","data":[1,154,188,243,222,18,76,90,158,226,67,119,75,195,104,103,178,195,28,250]},"announce":[],"urlList":[]}}